<svg width="24" height="14" viewBox="0 0 24 14" fill="none" xmlns="http://www.w3.org/2000/svg">
<path d="M6.25 13.5C9.55469 13.5 12.25 10.8281 12.25 7.5C12.25 4.19531 9.55469 1.5 6.25 1.5C2.92188 1.5 0.25 4.19531 0.25 7.5C0.25 10.8281 2.92188 13.5 6.25 13.5ZM18.25 3.375C18.25 2.97656 17.8984 2.625 17.5 2.625C17.0781 2.625 16.75 2.97656 16.75 3.375V6.75H13.375C12.9531 6.75 12.625 7.10156 12.625 7.5C12.625 7.92188 12.9531 8.25 13.375 8.25H16.75V11.625C16.75 12.0469 17.0781 12.375 17.5 12.375C17.8984 12.375 18.25 12.0469 18.25 11.625V8.25H21.625C22.0234 8.25 22.375 7.92188 22.375 7.5C22.375 7.10156 22.0234 6.75 21.625 6.75H18.25V3.375Z" fill="black"/>
</svg>
