<svg width="12" height="13" viewBox="0 0 12 13" fill="none" xmlns="http://www.w3.org/2000/svg">
<g clip-path="url(#clip0_84_5757)">
<path d="M3.75 6.5C3.75 5.25781 4.73438 4.25 6 4.25C7.24219 4.25 8.25 5.25781 8.25 6.5C8.25 7.74219 7.24219 8.75 6 8.75C4.73438 8.75 3.75 7.74219 3.75 6.5ZM12 6.5C12 9.82812 9.30469 12.5 6 12.5C2.67188 12.5 0 9.82812 0 6.5C0 3.19531 2.67188 0.5 6 0.5C9.30469 0.5 12 3.19531 12 6.5ZM6 1.625C3.30469 1.625 1.125 3.82812 1.125 6.5C1.125 9.19531 3.30469 11.375 6 11.375C8.67188 11.375 10.875 9.19531 10.875 6.5C10.875 3.82812 8.67188 1.625 6 1.625Z" fill="black"/>
</g>
<defs>
<clipPath id="clip0_84_5757">
<rect width="12" height="13" fill="white"/>
</clipPath>
</defs>
</svg>
