<svg width="24" height="14" viewBox="0 0 24 14" fill="none" xmlns="http://www.w3.org/2000/svg">
<path d="M6.25 13.5C9.55469 13.5 12.25 10.8281 12.25 7.5C12.25 4.19531 9.55469 1.5 6.25 1.5C2.92188 1.5 0.25 4.19531 0.25 7.5C0.25 10.8281 2.92188 13.5 6.25 13.5ZM22.5156 8.03906C22.8203 7.75781 22.8203 7.26562 22.5156 6.98438L18.7656 3.23438C18.4844 2.92969 17.9922 2.92969 17.7109 3.23438C17.4062 3.51562 17.4062 4.00781 17.7109 4.28906L20.1719 6.75H13C12.5781 6.75 12.25 7.10156 12.25 7.5C12.25 7.92188 12.5781 8.25 13 8.25H20.1719L17.7109 10.7344C17.4062 11.0156 17.4062 11.5078 17.7109 11.7891C17.9922 12.0938 18.4844 12.0938 18.7656 11.7891L22.5156 8.03906Z" fill="black"/>
</svg>
