<svg width="13" height="14" viewBox="0 0 13 14" fill="none" xmlns="http://www.w3.org/2000/svg">
<path d="M3.99804 1L3.91673 1.04731L3.89016 1.06278C2.74068 1.73042 1.94964 2.34263 1.42746 2.94045C0.904549 3.53911 0.651733 4.14188 0.644545 4.72296C0.630239 5.87937 1.50054 6.74597 2.27269 7.52103C3.04425 8.2955 3.7325 9.02587 3.79728 9.63033C3.83029 9.93842 3.75599 10.2479 3.41324 10.6716C3.07193 11.0935 2.45248 11.5989 1.46213 12.1647L0 13H9.0238L9.13058 12.9391L9.13069 12.939C10.1802 12.3394 10.8873 11.7854 11.3378 11.2284C11.7897 10.6698 11.9736 10.0854 11.9148 9.53668C11.7983 8.44952 10.8947 7.65732 10.135 6.89481C9.3748 6.13172 8.75859 5.41198 8.76698 4.73382C8.77121 4.39146 8.90547 4.00953 9.33013 3.52336C9.75406 3.03801 10.4688 2.47016 11.5646 1.83373V1.83371L13 1H3.99804ZM4.25238 1.89631H9.80967C9.32023 2.25398 8.93324 2.59951 8.63544 2.94045C8.11253 3.53911 7.85971 4.14188 7.85252 4.72296C7.83822 5.87938 8.70856 6.74598 9.48071 7.52103C10.2523 8.2955 10.9405 9.02586 11.0052 9.63033C11.0383 9.93842 10.964 10.2479 10.6212 10.6716C10.2925 11.0779 9.70142 11.5628 8.77298 12.1037H3.20144C3.58794 11.8083 3.895 11.5188 4.12985 11.2285C4.58174 10.6698 4.76559 10.0854 4.70679 9.53669C4.59028 8.44954 3.6867 7.65734 2.92705 6.89483C2.16682 6.13173 1.55063 5.412 1.55902 4.73383C1.56325 4.39148 1.69749 4.00955 2.12215 3.52337C2.53185 3.05433 3.21733 2.50717 4.25238 1.89631ZM2.95203 3.42501V3.83903H7.29633V3.42501H2.95203ZM2.79059 5.655V6.069H7.28239V5.655H2.79059ZM4.82589 7.88494V8.29893H9.176V7.88494H4.82589ZM5.44789 10.1149V10.5289H9.95545V10.1149H5.44789Z" fill="black"/>
</svg>
