<svg width="13" height="14" viewBox="0 0 13 14" fill="none" xmlns="http://www.w3.org/2000/svg">
<g clip-path="url(#clip0_79_6009)">
<path d="M6.5 13.625C2.89453 13.625 0 10.7305 0 7.125C0 3.54492 2.89453 0.625 6.5 0.625C10.0801 0.625 13 3.54492 13 7.125C13 10.7305 10.0801 13.625 6.5 13.625ZM5.89062 3.67188V7.125C5.89062 7.32812 5.99219 7.53125 6.14453 7.63281L8.58203 9.25781C8.86133 9.46094 9.24219 9.38477 9.44531 9.10547C9.62305 8.82617 9.54688 8.44531 9.26758 8.24219L7.10938 6.82031V3.67188C7.10938 3.3418 6.83008 3.0625 6.5 3.0625C6.14453 3.0625 5.89062 3.3418 5.89062 3.67188Z" fill="black"/>
</g>
<defs>
<clipPath id="clip0_79_6009">
<rect width="13" height="14" fill="white"/>
</clipPath>
</defs>
</svg>
